<?xml version="1.0" standalone="no"?>
<!DOCTYPE svg PUBLIC "-//W3C//DTD SVG 20010904//EN"
 "http://www.w3.org/TR/2001/REC-SVG-20010904/DTD/svg10.dtd">
<svg version="1.0" xmlns="http://www.w3.org/2000/svg"
 width="514.000000pt" height="439.000000pt" viewBox="0 0 514.000000 439.000000"
 preserveAspectRatio="xMidYMid meet">
<metadata>
Created by potrace 1.16, written by Peter Selinger 2001-2019
</metadata>
<g transform="translate(0.000000,439.000000) scale(0.100000,-0.100000)"
fill="#000000" stroke="none">
<path d="M3043 3398 c-62 -16 -94 -79 -75 -145 6 -18 10 -19 23 -10 8 7 18 20
22 30 8 21 33 22 41 2 4 -12 10 -14 25 -5 28 14 32 13 65 -15 37 -31 81 -34
73 -5 -3 13 0 20 10 20 9 0 13 6 9 15 -5 14 5 19 29 16 6 -1 -1 7 -13 17 -14
11 -23 27 -21 38 5 29 -9 44 -39 43 l-27 -1 25 -9 c20 -7 18 -8 -10 -3 -19 3
-51 9 -70 13 -19 4 -49 4 -67 -1z"/>
<path d="M4012 3154 c-14 -10 -22 -26 -22 -44 0 -36 38 -65 106 -81 27 -6 58
-15 69 -20 11 -4 -157 -8 -373 -8 l-393 -1 15 -28 c8 -16 20 -50 27 -75 l11
-47 404 0 404 0 0 -1053 c0 -1008 -1 -1055 -18 -1070 -15 -14 -41 -17 -146
-17 -82 0 -125 -4 -121 -10 4 -6 59 -10 131 -10 119 0 126 1 149 25 29 29 27
-38 25 647 l-1 518 47 30 c66 42 137 66 285 100 70 16 153 41 184 55 57 28
151 106 139 118 -10 9 -44 -12 -44 -27 0 -16 -60 -59 -120 -84 -25 -11 -97
-31 -160 -46 -153 -36 -228 -61 -284 -96 l-46 -30 0 309 c0 286 1 310 18 314
16 4 16 5 0 6 -16 1 -18 13 -18 103 0 82 3 105 18 122 16 20 16 20 0 7 -16
-12 -18 -10 -19 20 -3 92 -4 159 -1 159 2 0 13 -5 25 -11 21 -10 21 -10 2 5
-11 8 -29 24 -40 35 -11 11 -32 24 -47 30 -18 7 -28 18 -28 31 0 35 -39 100
-73 120 -39 24 -75 25 -105 4z"/>
<path d="M742 3083 c2 -5 15 -32 31 -60 39 -76 56 -159 64 -313 3 -74 10 -138
15 -141 5 -3 7 -52 6 -108 l-3 -103 -76 69 c-42 37 -106 95 -143 128 -82 72
-117 129 -133 215 l-13 65 5 -59 c4 -37 15 -78 32 -108 26 -48 184 -204 286
-284 l47 -37 0 -228 c0 -208 -1 -228 -17 -232 -17 -4 -17 -5 0 -6 16 -1 18
-12 18 -108 0 -60 2 -291 6 -514 3 -224 3 -423 -1 -443 l-7 -37 -53 48 c-99
91 -334 212 -427 221 -38 3 -51 0 -68 -17 -50 -50 -6 -191 73 -233 11 -6 63
-13 115 -15 245 -10 306 -24 411 -89 22 -14 77 -15 451 -10 234 4 427 4 430 2
5 -6 -8 -209 -16 -242 -3 -13 -20 -27 -42 -37 l-38 -15 68 -1 c67 -1 67 -1 67
27 0 24 24 133 51 235 l10 38 62 -3 62 -3 8 -45 c4 -25 7 -91 5 -147 l-4 -103
43 0 c46 0 48 1 33 28 -7 12 -7 55 2 142 l13 125 753 3 c560 1 752 5 752 14 0
8 -186 10 -750 5 l-750 -6 0 37 c0 20 5 81 10 134 5 53 10 144 11 202 1 59 5
109 10 112 5 3 9 15 9 28 0 13 9 31 21 42 26 24 65 90 73 127 4 15 2 46 -4 67
-10 36 -14 40 -43 40 -36 0 -94 32 -104 57 -4 9 0 28 9 43 15 26 15 27 -20 46
-53 28 -185 24 -276 -9 -79 -28 -109 -25 -140 17 -18 23 -21 43 -23 124 -1 94
-2 97 -24 97 -31 0 -42 -47 -37 -151 7 -137 53 -189 168 -189 l68 0 18 -103
c16 -97 16 -105 0 -164 -11 -39 -13 -63 -7 -67 7 -5 5 -34 -4 -86 -7 -44 -19
-153 -26 -242 l-13 -163 -432 0 c-410 0 -433 1 -455 19 l-24 19 -3 1051 -2
1051 877 2 877 3 16 55 c9 30 22 64 28 76 11 21 10 21 -136 28 -81 3 -280 4
-442 1 -162 -3 -497 -5 -743 -5 l-448 0 -24 -25 c-24 -23 -25 -31 -26 -147
l-2 -123 -8 90 c-5 49 -16 115 -25 145 -18 62 -63 150 -76 150 -6 0 -8 -3 -6
-7z m1273 -2280 l7 -103 -66 0 -65 0 15 53 c28 98 75 252 81 267 7 17 17 -60
28 -217z"/>
<path d="M2850 2993 c-35 -13 -72 -47 -90 -83 -37 -72 -54 -69 288 -63 169 3
308 7 310 8 7 6 -28 62 -55 86 -58 55 -78 59 -265 58 -95 0 -180 -3 -188 -6z"/>
<path d="M3380 1922 c0 -54 22 -147 47 -195 30 -60 97 -127 151 -151 23 -10
43 -27 46 -40 4 -11 9 -104 13 -205 l6 -184 126 6 c130 6 190 19 215 46 31 35
-24 273 -85 364 -39 59 -79 88 -138 99 -69 12 -101 69 -101 176 0 43 -3 52
-21 57 -12 4 -25 3 -31 -3 -12 -12 -15 -138 -4 -169 12 -37 -10 -27 -68 30
-51 49 -74 94 -90 170 -5 22 -12 27 -36 27 -26 0 -30 -4 -30 -28z"/>
<path d="M3830 1895 c0 -8 -5 -15 -11 -15 -7 0 -8 -7 -4 -17 17 -41 22 -104 9
-121 -18 -24 -17 -59 2 -66 24 -9 66 -7 60 3 -4 5 3 7 15 4 12 -4 25 0 30 8 4
8 16 14 26 14 14 0 18 8 16 35 -2 58 -3 61 -11 56 -5 -3 -6 8 -4 25 4 25 2 28
-13 22 -12 -4 -16 -3 -12 4 4 6 -3 8 -18 6 -18 -4 -27 1 -39 26 -17 32 -46 42
-46 16z"/>
<path d="M1436 564 c-3 -8 -2 -12 3 -9 9 5 13 -4 25 -57 5 -20 2 -28 -11 -31
-16 -4 -17 -5 -1 -6 11 -1 19 -13 24 -36 l6 -35 78 0 77 0 12 73 c7 39 14 82
18 95 4 18 1 22 -20 22 -23 0 -26 -4 -29 -42 -2 -30 -8 -43 -18 -43 -22 0 -24
34 -4 56 32 35 8 30 -27 -6 -40 -40 -45 -42 -54 -15 -4 11 -11 18 -16 14 -6
-3 -13 3 -16 15 -6 24 -38 28 -47 5z"/>
</g>
</svg>
